HIERARCHY
ROOT Hips
{
  OFFSET 2.26061 22.2878 23.7974
  CHANNELS 6 Xposition Yposition Zposition Zrotation Xrotation Yrotation
  JOINT LeftUpLeg
  {
    OFFSET 8.64259 1.95398 -2.38835
    CHANNELS 3 Zrotation Xrotation Yrotation
    JOINT LeftLeg
    {
      OFFSET 43.7702 0 0
      CHANNELS 3 Zrotation Xrotation Yrotation
      JOINT LeftFoot
      {
        OFFSET 40.6238 0 0
        CHANNELS 3 Zrotation Xrotation Yrotation
        JOINT LeftToeBase
        {
          OFFSET 12.7242 0 0
          CHANNELS 3 Zrotation Xrotation Yrotation
          End Site
          {
            OFFSET 0 0 0
          }
        }
      }
    }
  }
  JOINT RightUpLeg
  {
    OFFSET -8.2249 1.95398 -2.59336
    CHANNELS 3 Zrotation Xrotation Yrotation
    JOINT RightLeg
    {
      OFFSET 43.5653 0 0
      CHANNELS 3 Zrotation Xrotation Yrotation
      JOINT RightFoot
      {
        OFFSET 40.6238 0 0
        CHANNELS 3 Zrotation Xrotation Yrotation
        JOINT RightToeBase
        {
          OFFSET 12.7242 0 0
          CHANNELS 3 Zrotation Xrotation Yrotation
          End Site
          {
            OFFSET 0 0 0
          }
        }
      }
    }
  }
  JOINT Spine
  {
    OFFSET 0.165834 0.87714 6.61349
    CHANNELS 3 Zrotation Xrotation Yrotation
    JOINT Spine1
    {
      OFFSET 7.38963 1.71661e-005 0
      CHANNELS 3 Zrotation Xrotation Yrotation
      JOINT Spine2
      {
        OFFSET 11.9445 1.14441e-005 0
        CHANNELS 3 Zrotation Xrotation Yrotation
        JOINT Spine3
        {
          OFFSET 14.7254 4.19617e-005 0
          CHANNELS 3 Zrotation Xrotation Yrotation
          JOINT Spine4
          {
            OFFSET 10.9679 0 0
            CHANNELS 3 Zrotation Xrotation Yrotation
            JOINT RightShoulder
            {
              OFFSET 2.46616 -1.6653 3.69651
              CHANNELS 3 Zrotation Xrotation Yrotation
              JOINT RightArm
              {
                OFFSET 13.0012 0 0
                CHANNELS 3 Zrotation Xrotation Yrotation
                JOINT RightForeArm
                {
                  OFFSET 28.7848 1.52588e-005 0
                  CHANNELS 3 Zrotation Xrotation Yrotation
                  JOINT RightHand
                  {
                    OFFSET 26.5688 1.52588e-005 0
                    CHANNELS 3 Zrotation Xrotation Yrotation
                    End Site
                    {
                      OFFSET 0 0 0
                    }
                  }
                }
              }
            }
            JOINT LeftShoulder
            {
              OFFSET 2.38034 -1.29275 -3.7523
              CHANNELS 3 Zrotation Xrotation Yrotation
              JOINT LeftArm
              {
                OFFSET 16.3182 6.10351e-005 0
                CHANNELS 3 Zrotation Xrotation Yrotation
                JOINT LeftForeArm
                {
                  OFFSET 27.0901 0 0
                  CHANNELS 3 Zrotation Xrotation Yrotation
                  JOINT LeftHand
                  {
                    OFFSET 24.5451 1.52588e-005 0
                    CHANNELS 3 Zrotation Xrotation Yrotation
                    End Site
                    {
                      OFFSET 0 0 0
                    }
                  }
                }
              }
            }
            JOINT Neck
            {
              OFFSET 5.0226 -0.0266342 0
              CHANNELS 3 Zrotation Xrotation Yrotation
              JOINT Head
              {
                OFFSET 6.69363 2.86102e-005 0
                CHANNELS 3 Zrotation Xrotation Yrotation
                End Site
                {
                  OFFSET 0 0 0
                }
              }
            }
          }
        }
      }
    }
  }
}
MOTION
Frames:	15
Frame Time:	0.0416667
42.9289 87.7359 -97.0638 -23.5854 -80.0205 -22.1169 -170.923 19.3801 90.6314 -72.0784 7.1086 0.493798 53.7108 0.573017 3.16528 40.3435 9.89715 12.3021 175.616 42.8054 96.2325 -52.7834 9.86508 -0.155366 80.4844 -7.86213 -3.37863 41.4352 0.284706 -7.55976 -0.452527 8.33697 -90.9956 10.185 -1.35598 -1.8612 -1.48653 -1.43657 -1.79975 -24.0132 -0.734086 -2.18254 -4.00053 -0.734083 -2.18255 88.9279 -49.841 -102.511 23.062 -8.78855 12.6945 -0.227913 -15.5925 -47.2864 -25.7009 -2.23301 5.01301 -104.853 -49.246 56.7324 -6.63709 10.2512 -9.37478 3.68661 1.13823 -57.5025 18.8797 0.982573 1.35505 9.85318 3.23646 5.35889 11.4975 2.56115 3.35778 
42.658 87.156 -90.9287 -36.8571 -76.472 -34.9469 -168.917 30.3006 89.101 -76.6282 7.12495 -0.13378 57.6711 3.87851 5.04224 44.1474 13.4547 11.5289 176.141 42.1298 97.3898 -55.6392 9.59777 -0.514075 81.0079 -8.62995 -3.65423 40.6648 0.336466 -6.48049 -0.038481 8.50293 -91.0199 9.85893 -0.539184 -1.97996 -1.81339 -0.625785 -1.95434 -24.3362 0.0806589 -2.05045 -4.3236 0.0806615 -2.05045 88.937 -50.0851 -102.429 20.6391 -7.73795 4.60475 -1.54279 -16.3321 -47.4582 -25.6185 -2.23372 5.08499 -105.996 -49.7442 55.3351 -9.37467 10.3777 -4.29009 2.90265 2.0025 -52.2247 20.615 1.26097 2.25754 9.85893 3.48512 5.51658 13.3888 2.81521 3.33494 
42.6297 86.3737 -84.9704 -43.3403 -72.7092 -40.8939 -167.409 41.5926 87.8336 -77.6323 5.19212 -0.348878 61.579 6.55967 5.33708 44.8716 14.7465 15.4963 175.592 41.2544 98.2247 -58.1603 9.08565 -0.379036 82.6297 -10.0946 -4.09779 40.8214 0.412338 -4.62924 0.291495 8.66024 -91.0179 9.55007 0.122247 -2.02744 -2.12247 0.0329084 -2.03087 -24.6462 0.725817 -1.89706 -4.63352 0.72581 -1.89706 87.8025 -50.4993 -104.044 17.9706 -6.37193 -3.33557 -2.28001 -16.8817 -47.3858 -27.0503 -2.18001 4.43578 -107.187 -50.3627 53.9458 -12.5841 10.4558 1.59969 2.64627 2.93807 -47.3762 20.4694 1.42674 3.13027 11.2282 4.06461 6.26494 14.6427 3.0489 2.48781 
42.6478 85.5614 -78.8913 -51.7594 -69.2972 -48.7829 -166.704 50.3929 88.0777 -74.4225 4.76391 -0.635832 65.1758 8.43842 6.26263 44.0966 14.2489 17.4448 175.875 38.6281 98.2973 -60.2508 6.81776 -0.826083 84.5966 -11.8226 -4.56452 41.1668 0.357029 -6.04103 0.663196 8.92592 -90.9028 9.02637 0.919884 -1.85143 -2.64561 0.837528 -1.89011 -25.176 1.43373 -1.48948 -5.16337 1.43373 -1.48949 86.1772 -50.0394 -106.636 16.3649 -5.42177 -10.1943 -2.328 -15.4897 -49.6608 -33.3691 -2.32619 3.28506 -107.157 -50.5141 54.0564 -16.4593 11.6344 6.73513 1.42531 3.80775 -40.8088 19.8369 1.18678 2.13237 14.3751 4.83558 6.62992 13.4728 3.37512 1.64849 
42.5921 84.5069 -72.2246 -57.6723 -65.7187 -55.5341 -166.448 57.2024 88.8074 -67.6757 5.69982 -1.38629 67.3473 8.84742 7.63216 44.8488 14.8924 16.5553 176.833 35.6359 96.4468 -62.3948 5.66397 -1.89893 87.0108 -13.8932 -5.03461 43.9108 0.324476 -6.24276 0.972804 9.10353 -90.5943 8.67602 1.67749 -1.2834 -2.99453 1.61939 -1.35599 -25.5365 1.98562 -0.719809 -5.52384 1.98562 -0.719806 85.0978 -48.7148 -108.692 15.551 -5.45537 -15.9355 -3.80585 -14.536 -55.8809 -38.452 -2.44913 2.66048 -106.095 -50.4603 55.5151 -21.9803 14.7126 13.3952 1.26251 6.62989 -37.1679 18.9246 1.23634 2.68572 18.6249 5.65527 6.71364 11.0469 3.82114 1.3394 
42.4668 83.2719 -64.8166 -62.1621 -62.308 -60.8808 -166.694 62.3452 91.4496 -59.3299 3.42973 -2.4243 69.5796 8.19999 4.59606 44.5544 14.6299 16.8231 177.738 32.1606 93.887 -64.7533 4.17343 -3.13808 87.3561 -14.754 -5.28106 49.3043 -0.114796 -9.84857 1.33473 9.05926 -90.2163 8.76253 2.56698 -0.596799 -2.90608 2.53822 -0.709266 -25.4616 2.62758 0.202815 -5.44893 2.62758 0.202813 86.3234 -46.6403 -107.458 16.9585 -7.59762 -20.2345 -9.05651 -12.134 -67.613 -40.8866 -1.81097 0.606541 -104.144 -49.7458 57.9588 -30.2727 18.503 23.0565 2.29045 10.8238 -38.0607 19.1331 1.40668 3.49892 21.7647 5.83989 4.80536 7.94235 4.51434 3.02377 
41.9156 82.1902 -56.1535 -64.3444 -59.5785 -64.7703 -166.652 65.0722 93.9802 -49.3706 2.0153 -4.32261 71.4662 7.90389 2.98707 43.8966 14.3034 19.226 178.756 27.5672 89.8677 -65.5034 2.94874 -4.92772 85.8696 -14.4512 -5.35343 55.1981 -0.660751 -11.8382 1.74322 8.72992 -89.7916 9.41455 3.56969 0.146628 -2.25147 3.57269 -0.0108283 -24.8226 3.36041 1.21391 -4.80992 3.3604 1.2139 89.4392 -41.8985 -103.828 21.519 -12.0431 -23.0722 -15.3677 -9.89517 -80.3863 -44.4622 -1.17474 -1.12137 -101.781 -48.6046 60.8844 -41.2605 21.6024 36.8936 4.68861 12.7311 -45.3963 19.7528 1.46212 3.55914 23.6698 5.26458 4.34181 4.67833 3.93236 2.98156 
41.1735 81.4559 -46.0882 -66.2166 -58.9583 -68.3166 -167.744 65.1477 96.8993 -39.8095 1.6328 -6.33516 70.4977 6.23233 3.19065 47.3495 17.9572 18.9417 178.806 19.8681 85.1869 -63.36 -0.0332117 -7.27789 82.3251 -12.774 -5.1573 60.0402 -1.48987 -14.4645 2.11171 8.33307 -89.3525 10.1925 4.50316 0.905867 -1.47086 4.53866 0.70641 -24.0557 4.02245 2.21929 -4.04309 4.02246 2.2193 92.3866 -33.602 -100.922 30.0483 -16.6948 -22.2444 -24.9582 -4.00632 -92.0997 -44.4202 -1.59493 0.349346 -97.5713 -44.1481 65.4659 -54.4378 19.9955 50.8428 7.14949 10.6564 -54.5089 20.4415 1.49545 3.47769 23.0846 3.79705 2.01307 2.58485 3.22722 3.25968 
40.2852 81.5034 -34.434 -70.5945 -61.082 -72.3608 -169.223 61.511 98.6467 -32.833 0.729642 -6.29769 69.0467 5.05395 4.00557 49.3967 19.8035 17.5805 176.58 7.17028 81.0437 -56.233 -5.95915 -10.0464 73.195 -8.34612 -4.17278 66.0525 -2.22766 -15.5166 2.36112 8.1799 -89.0636 10.4894 5.13298 1.40495 -1.17186 5.18984 1.17711 -23.7667 4.47313 2.8851 -3.75404 4.47314 2.88511 94.4201 -26.155 -98.9431 36.7969 -20.7751 -21.3117 -28.589 2.49995 -99.6373 -44.062 -1.80671 1.03881 -95.1165 -37.3 66.8077 -64.3071 13.5268 58.6161 9.52537 8.94745 -59.7547 20.8627 1.38311 2.80219 21.2682 1.51074 -2.99562 0.510268 2.56278 5.3716 
40.0741 82.5092 -21.9693 -74.429 -63.8547 -75.5391 -170.03 56.2812 97.4289 -30.0535 -0.399675 -4.65474 68.524 6.00522 4.18006 48.0634 18.4704 17.8384 173.742 -3.47303 78.0493 -46.8351 -8.70975 -12.1479 47.8126 1.77799 2.18991 55.1476 -1.01267 -13.8476 2.3728 7.95372 -88.8226 10.9277 5.26871 1.8436 -0.733502 5.34473 1.60936 -23.3241 4.47095 3.34394 -3.31142 4.47095 3.34394 94.8646 -21.1437 -99.4258 39.7151 -23.3111 -21.1529 -28.9548 3.51596 -101.853 -46.2643 -2.16349 1.69469 -94.3305 -32.3181 66.1827 -68.5623 5.22943 61.2246 11.2543 7.79093 -61.9828 22.5728 1.74169 3.88624 16.4998 -0.368069 -10.5797 0.0667181 2.69953 10.0708 
40.1932 83.5497 -9.78693 -73.3919 -66.2515 -71.1223 -172.555 54.3868 98.1945 -33.6923 2.73683 -2.4073 65.0843 3.97601 3.8687 48.3321 18.1256 14.9859 174.728 -7.9284 81.2211 -47.1155 -9.59369 -11.9895 44.1335 3.31219 3.26 40.1015 0.200058 -10.5692 2.40563 7.4222 -88.8979 11.999 5.30279 1.62196 0.338169 5.36902 1.3864 -22.2574 4.56995 3.14316 -2.24478 4.56995 3.14314 95.1719 -26.3419 -97.262 33.5167 -26.6282 -23.1703 -26.8102 0.0537618 -98.4446 -44.1742 -1.57398 0.310769 -94.0863 -32.4853 66.6936 -65.0945 0.917912 60.3056 8.17445 4.48644 -62.1691 26.0765 2.06688 4.12594 12.9857 -2.22702 -18.7637 -2.7439e-005 2.57538 14.1807 
40.0263 84.4505 0.281982 -66.8378 -67.8494 -63.5439 -173.248 56.5315 97.2365 -43.1609 9.30174 -2.13214 62.5388 1.8172 3.07366 47.682 17.4714 14.9861 177.012 -1.2528 84.7532 -57.6463 -4.14096 -8.42738 47.1446 1.27398 1.37135 40.4851 0.152276 -11.4173 2.33244 7.17929 -88.9223 12.4879 5.14673 1.56031 0.826483 5.2104 1.33173 -21.7659 4.43964 3.03725 -1.75319 4.43964 3.03725 94.4809 -34.5412 -96.726 27.1851 -25.1809 -25.8488 -20.7906 -5.45767 -91.998 -44.5125 -1.909 0.804123 -96.6927 -43.3442 66.5854 -51.2349 6.18025 51.6838 4.0007 1.88976 -62.1553 32.2963 2.79486 4.85883 19.327 -2.51433 -10.3678 -4.09357 0.433774 4.33605 
39.3365 85.492 8.68204 -67.5401 -72.9211 -66.8882 -171.851 50.9101 91.3286 -46.4579 11.8299 -2.07605 60.1003 0.843171 3.81578 46.8063 15.6441 9.57734 174.986 7.62304 85.5498 -70.5332 6.11584 -4.39615 53.6028 -1.8123 -1.03481 41.032 0.112395 -11.709 2.08174 7.73687 -88.6168 11.3546 4.78732 2.27864 -0.309132 4.88295 2.06537 -22.8788 3.88137 3.61293 -2.86618 3.88137 3.61292 90.6436 -45.2156 -100.914 20.3106 -17.5009 -27.009 -10.5983 -8.44414 -81.9038 -51.1207 -1.62213 -0.963379 -105.683 -51.2506 56.4413 -34.0707 14.6561 34.1379 -0.907229 -0.11154 -62.2697 38.9438 3.02454 3.77601 26.3209 -3.60791 -3.31524 -8.38343 -2.29103 -1.09635 
39.6042 86.9346 16.4712 -73.7949 -77.4335 -73.3966 -172.056 44.1974 88.1948 -49.0628 12.1349 -1.65396 62.1485 3.65465 6.57649 38.5123 7.7646 3.12112 172.119 17.5889 87.3284 -76.1385 14.6191 -1.49515 61.2008 -4.943 -2.89183 39.7751 0.196179 -11.0018 1.85116 8.04299 -88.587 10.7402 4.3376 2.40892 -0.925366 4.43938 2.21544 -23.4821 3.41344 3.60144 -3.4694 3.41343 3.60143 88.594 -44.9441 -104.351 18.0792 -12.7153 -24.4052 -3.30767 -7.78409 -84.5281 -53.4579 -1.44839 -2.09327 -107.123 -52.8164 55.1347 -14.8085 20.0035 9.2437 21.2457 12.6454 -64.5897 28.1025 3.94152 10.3494 25.7402 -4.75537 -4.12228 -8.55342 -3.17979 -0.510598 
40.6353 88.2773 23.9442 -72.6102 -80.8291 -70.2154 -173.606 39.8789 87.5692 -51.3997 11.6211 -0.440936 64.3271 6.04289 7.64856 34.4559 4.40056 3.26231 172.447 29.9389 91.7555 -75.5678 11.2063 -0.469115 63.9624 -5.27918 -3.0251 44.4926 0.0135452 -10.5671 1.49715 8.05575 -88.8201 10.7296 3.52523 2.02202 -0.937889 3.61079 1.8648 -23.4861 2.75476 2.98813 -3.47348 2.75476 2.9881 90.2913 -41.2596 -102.564 13.6483 -4.94418 -23.4906 -15.7404 -1.1185 -96.7511 -51.6909 -1.39527 -1.43029 -108.966 -51.0785 51.8169 1.57353 8.48333 -6.96663 -0.509381 3.51011 -65.7953 70.8952 6.82967 4.9267 21.7556 -4.83973 -7.46523 -5.46662 -2.44248 0.1664 
